<svg width="366" height="366" viewBox="0 0 366 366" fill="none" xmlns="http://www.w3.org/2000/svg">
<path d="M366 183.058C366.019 152.602 358.432 122.624 343.927 95.8412C329.422 69.0588 308.458 46.3203 282.937 29.6882C257.415 13.0562 228.144 3.05696 197.778 0.597526C167.412 -1.86191 136.912 3.29628 109.045 15.6042C81.1785 27.9121 56.8263 46.9803 38.1977 71.0791C19.569 95.1779 7.25349 123.545 2.36818 153.607C-2.51713 183.668 0.182373 214.474 10.2218 243.228C20.2613 271.983 37.323 297.777 59.8593 318.271C60.305 318.799 60.8238 319.261 61.4001 319.643C94.8642 349.499 138.149 366 183.002 366C227.855 366 271.14 349.498 304.603 319.641C305.177 319.26 305.693 318.799 306.137 318.273C324.999 301.157 340.07 280.285 350.38 256.998C360.69 233.71 366.01 208.524 366 183.058V183.058ZM14.64 183.058C14.6206 155.388 21.4258 128.14 34.4532 103.725C47.4806 79.3114 66.3283 58.4849 89.3276 43.0896C112.327 27.6943 138.768 18.2052 166.311 15.4624C193.854 12.7195 221.648 16.8076 247.234 27.3646C272.819 37.9216 295.406 54.6218 312.995 75.9869C330.585 97.352 342.633 122.723 348.075 149.853C353.516 176.984 352.182 205.037 344.192 231.529C336.201 258.021 321.8 282.135 302.263 301.737C284.093 271.318 254.94 249.028 220.815 239.463C236.675 231.029 249.259 217.535 256.563 201.127C263.868 184.72 265.474 166.342 261.126 148.917C256.779 131.492 246.727 116.021 232.57 104.965C218.413 93.9086 200.965 87.9029 183 87.9029C165.035 87.9029 147.587 93.9086 133.43 104.965C119.273 116.021 109.221 131.492 104.874 148.917C100.526 166.342 102.132 184.72 109.437 201.127C116.741 217.535 129.325 231.029 145.185 239.463C111.06 249.029 81.9077 271.318 63.7371 301.737C48.1581 286.147 35.8037 267.643 27.3796 247.28C18.9554 226.917 14.6265 205.094 14.64 183.058V183.058ZM183 234.282C169.97 234.282 157.233 230.42 146.399 223.183C135.565 215.946 127.121 205.66 122.135 193.626C117.148 181.592 115.844 168.35 118.386 155.574C120.928 142.799 127.202 131.064 136.416 121.853C145.629 112.643 157.368 106.37 170.147 103.829C182.927 101.288 196.173 102.592 208.211 107.577C220.249 112.562 230.538 121.003 237.777 131.833C245.016 142.664 248.88 155.397 248.88 168.423C248.861 185.884 241.913 202.624 229.563 214.971C217.212 227.318 200.466 234.263 183 234.282ZM74.7829 311.881C85.6467 292.762 101.385 276.863 120.394 265.803C139.403 254.742 161.005 248.915 183 248.915C204.995 248.915 226.597 254.742 245.606 265.803C264.615 276.863 280.353 292.762 291.217 311.881C260.927 337.381 222.6 351.365 183 351.365C143.4 351.365 105.073 337.381 74.7829 311.881V311.881Z" fill="black"/>
</svg>
