<svg width="677" height="315" viewBox="0 0 677 315" fill="none" xmlns="http://www.w3.org/2000/svg">
<path d="M82.4609 257.734C82.4609 263.281 81.4323 268.19 79.375 272.461C77.3177 276.732 74.388 280.026 70.5859 282.344C66.8099 284.635 62.5 285.781 57.6562 285.781C52.8125 285.781 48.5156 284.674 44.7656 282.461C41.0156 280.221 38.0859 277.031 35.9766 272.891C33.8932 268.75 32.7995 263.997 32.6953 258.633V255.43C32.6953 249.857 33.7109 244.948 35.7422 240.703C37.7995 236.432 40.7292 233.138 44.5312 230.82C48.3594 228.503 52.7083 227.344 57.5781 227.344C62.3958 227.344 66.6927 228.49 70.4688 230.781C74.2448 233.073 77.1745 236.341 79.2578 240.586C81.3672 244.805 82.4349 249.648 82.4609 255.117V257.734ZM68.5156 255.352C68.5156 249.701 67.5651 245.417 65.6641 242.5C63.7891 239.557 61.0938 238.086 57.5781 238.086C50.7031 238.086 47.0703 243.242 46.6797 253.555L46.6406 257.734C46.6406 263.307 47.5651 267.591 49.4141 270.586C51.263 273.581 54.0104 275.078 57.6562 275.078C61.1198 275.078 63.7891 273.607 65.6641 270.664C67.5391 267.721 68.4896 263.49 68.5156 257.969V255.352ZM124.952 262.344H102.842V285H89.1312V228.125H127.178V238.711H102.842V251.797H124.952V262.344ZM168.302 262.344H146.192V285H132.481V228.125H170.528V238.711H146.192V251.797H168.302V262.344ZM190.441 285H176.769V228.125H190.441V285ZM245.587 265.742C245.405 269.701 244.337 273.203 242.384 276.25C240.431 279.271 237.684 281.615 234.142 283.281C230.627 284.948 226.603 285.781 222.072 285.781C214.598 285.781 208.712 283.346 204.416 278.477C200.119 273.607 197.97 266.732 197.97 257.852V255.039C197.97 249.466 198.934 244.596 200.861 240.43C202.814 236.237 205.614 233.008 209.259 230.742C212.905 228.451 217.124 227.305 221.916 227.305C228.817 227.305 234.364 229.128 238.556 232.773C242.749 236.393 245.132 241.393 245.705 247.773H232.033C231.929 244.31 231.056 241.823 229.416 240.312C227.775 238.802 225.275 238.047 221.916 238.047C218.504 238.047 216.004 239.323 214.416 241.875C212.827 244.427 211.994 248.503 211.916 254.102V258.125C211.916 264.193 212.671 268.529 214.181 271.133C215.718 273.737 218.348 275.039 222.072 275.039C225.223 275.039 227.632 274.297 229.298 272.812C230.965 271.328 231.851 268.971 231.955 265.742H245.587ZM286.945 260.898H265.383V274.453H290.852V285H251.672V228.125H290.93V238.711H265.383V250.703H286.945V260.898ZM341.467 238.711H324.397V285H310.686V238.711H293.928V228.125H341.467V238.711ZM368.02 264.922H360.598V285H346.888V228.125H369.27C376.015 228.125 381.289 229.622 385.091 232.617C388.893 235.612 390.794 239.844 390.794 245.312C390.794 249.271 389.986 252.552 388.372 255.156C386.783 257.76 384.283 259.87 380.872 261.484L392.747 284.414V285H378.059L368.02 264.922ZM360.598 254.336H369.27C371.874 254.336 373.828 253.659 375.13 252.305C376.458 250.924 377.122 249.01 377.122 246.562C377.122 244.115 376.458 242.201 375.13 240.82C373.802 239.414 371.848 238.711 369.27 238.711H360.598V254.336ZM430.98 274.375H412.191L408.909 285H394.261L415.12 228.125H428.011L449.027 285H434.3L430.98 274.375ZM415.472 263.789H427.698L421.566 244.062L415.472 263.789ZM497.962 265.742C497.78 269.701 496.712 273.203 494.759 276.25C492.806 279.271 490.059 281.615 486.517 283.281C483.002 284.948 478.978 285.781 474.447 285.781C466.973 285.781 461.087 283.346 456.791 278.477C452.494 273.607 450.345 266.732 450.345 257.852V255.039C450.345 249.466 451.309 244.596 453.236 240.43C455.189 236.237 457.989 233.008 461.634 230.742C465.28 228.451 469.499 227.305 474.291 227.305C481.192 227.305 486.739 229.128 490.931 232.773C495.124 236.393 497.507 241.393 498.08 247.773H484.408C484.304 244.31 483.431 241.823 481.791 240.312C480.15 238.802 477.65 238.047 474.291 238.047C470.879 238.047 468.379 239.323 466.791 241.875C465.202 244.427 464.369 248.503 464.291 254.102V258.125C464.291 264.193 465.046 268.529 466.556 271.133C468.093 273.737 470.723 275.039 474.447 275.039C477.598 275.039 480.007 274.297 481.673 272.812C483.34 271.328 484.226 268.971 484.33 265.742H497.962ZM523.383 263.828L517.758 270V285H504.047V228.125H517.758V253.203L522.523 245.977L534.789 228.125H551.742L532.523 253.281L551.742 285H535.492L523.383 263.828ZM590.092 260.898H568.53V274.453H593.998V285H554.819V228.125H594.077V238.711H568.53V250.703H590.092V260.898ZM620.317 264.922H612.895V285H599.184V228.125H621.567C628.312 228.125 633.585 229.622 637.388 232.617C641.19 235.612 643.091 239.844 643.091 245.312C643.091 249.271 642.283 252.552 640.669 255.156C639.08 257.76 636.58 259.87 633.169 261.484L645.044 284.414V285H630.356L620.317 264.922ZM612.895 254.336H621.567C624.171 254.336 626.124 253.659 627.427 252.305C628.755 250.924 629.419 249.01 629.419 246.562C629.419 244.115 628.755 242.201 627.427 240.82C626.098 239.414 624.145 238.711 621.567 238.711H612.895V254.336Z" fill="white"/>
<path fill-rule="evenodd" clip-rule="evenodd" d="M337.37 192.994C344.328 192.916 351.264 192.206 358.094 190.873C338.131 124.846 324.132 88.3091 262.748 49.2559C259.812 53.7777 257.187 58.494 254.891 63.3721C309.708 92.629 338.887 162.731 337.37 192.994Z" fill="white"/>
<path fill-rule="evenodd" clip-rule="evenodd" d="M364.608 189.25C372.485 186.841 380.056 183.529 387.171 179.381C359.76 109.879 313.274 52.0122 273.655 36.1824C271.36 38.5491 269.197 40.9756 267.327 43.2704C316.63 69.9929 349.237 120.886 364.608 189.274V189.25Z" fill="white"/>
<path fill-rule="evenodd" clip-rule="evenodd" d="M393.026 175.469C399.507 170.708 405.336 165.118 410.363 158.842C367.317 86.0983 340.877 52.5275 288.709 23.9236C285.199 26.1719 281.861 28.6793 278.725 31.4251C310.595 48.2015 368.521 98.5669 393.02 175.469H393.026Z" fill="white"/>
<path fill-rule="evenodd" clip-rule="evenodd" d="M320.327 190.988C323.681 191.682 327.073 192.178 330.485 192.473C324.205 135.745 285.611 93.6121 251.811 71.5271C250.581 75.0884 249.581 78.7248 248.815 82.4138C282.069 111.447 306.796 148.978 320.345 190.988H320.327Z" fill="white"/>
<path fill-rule="evenodd" clip-rule="evenodd" d="M413.743 154.528C418.528 147.871 422.404 140.605 425.267 132.923C396.19 76.7875 366.538 48.0158 320.525 10.802C316.231 11.6598 312.008 12.8395 307.892 14.3311C331.623 31.3412 399.534 99.2859 413.743 154.534V154.528Z" fill="white"/>
<path fill-rule="evenodd" clip-rule="evenodd" d="M428.042 124.181C430.595 114.246 431.442 103.95 430.547 93.7318C411.328 66.5599 363.314 19.3521 341.757 9.04055C337.441 8.91608 333.12 9.07826 328.825 9.52592C356.236 26.9015 398.018 71.5509 428.042 124.187V124.181Z" fill="white"/>
<path fill-rule="evenodd" clip-rule="evenodd" d="M428.096 78.0816C426.352 71.1672 423.785 64.4869 420.449 58.1835C409.455 36.9228 390.498 20.8708 367.713 13.5282C362.613 11.938 357.406 10.7166 352.131 9.87329C377.864 23.8157 412.006 58.7528 428.09 78.0877L428.096 78.0816Z" fill="white"/>
<path fill-rule="evenodd" clip-rule="evenodd" d="M313.184 189.202C306.927 187.616 300.931 185.141 295.379 181.85C281.452 145.901 263.977 119.687 247.041 103.804C246.915 99.1782 247.081 94.5495 247.538 89.9451C266.116 110.814 293.563 137.375 313.178 189.202H313.184Z" fill="white"/>
<path fill-rule="evenodd" clip-rule="evenodd" d="M271.857 163.906C275.909 168.055 280.296 171.863 284.975 175.29C278.173 158.849 257.594 130.413 248.119 114.649C249.048 121.776 250.904 128.751 253.639 135.398C257.981 145.897 264.149 155.545 271.857 163.894V163.906Z" fill="white"/>
</svg>
