<svg xmlns="http://www.w3.org/2000/svg" width="169.769" height="30.706" viewBox="0 0 169.769 30.706">
    <defs>
        <style>
            .cls-1,.cls-2{fill:#fff}.cls-1{fill-rule:evenodd}
        </style>
    </defs>
    <g id="Лого" transform="translate(-109.128 -171.395)">
        <g id="Group_140" data-name="Group 140" transform="translate(109.128 171.395)">
            <g id="Group_138" data-name="Group 138">
                <path id="Path_437" d="M124.72 204.726a19.188 19.188 0 0 0 3.458-.354c-3.331-11.02-5.667-17.118-15.91-23.636a19.837 19.837 0 0 0-1.311 2.356c9.147 4.883 14.016 16.583 13.763 21.634z" class="cls-1" data-name="Path 437" transform="translate(-109.642 -174.019)"/>
                <path id="Path_438" d="M130.076 203.248a17.83 17.83 0 0 0 3.765-1.647c-4.574-11.6-12.331-21.258-18.942-23.9-.383.395-.744.8-1.056 1.183 8.227 4.46 13.668 12.954 16.233 24.368z" class="cls-1" data-name="Path 438" transform="translate(-110.453 -173.166)"/>
                <path id="Path_439" d="M135.562 200.149a15.35 15.35 0 0 0 2.893-2.775c-7.183-12.141-11.595-17.744-20.3-22.518a13.96 13.96 0 0 0-1.666 1.252c5.318 2.8 14.984 11.206 19.072 24.041z" class="cls-1" data-name="Path 439" transform="translate(-111.197 -172.367)"/>
                <path id="Path_440" d="M121.478 205.845a14.524 14.524 0 0 0 1.695.248c-1.048-9.468-7.488-16.5-13.128-20.186a14.744 14.744 0 0 0-.5 1.817 40.6 40.6 0 0 1 11.936 18.121z" class="cls-1" data-name="Path 440" transform="translate(-109.244 -175.473)"/>
                <path id="Path_441" d="M140.921 195.8a15.386 15.386 0 0 0 1.923-3.606c-4.852-9.369-9.8-14.171-17.478-20.382a14.561 14.561 0 0 0-2.108.589c3.96 2.839 15.292 14.179 17.663 23.4z" class="cls-1" data-name="Path 441" transform="translate(-113.099 -171.513)"/>
                <path id="Path_442" d="M144.671 190.617a15.119 15.119 0 0 0 .418-5.082c-3.207-4.535-11.219-12.414-14.816-14.135a16.286 16.286 0 0 0-2.158.081c4.574 2.9 11.546 10.352 16.556 19.137z" class="cls-1" data-name="Path 442" transform="translate(-114.463 -171.395)"/>
                <path id="Path_443" d="M146.2 182.978a14.89 14.89 0 0 0-1.276-3.321 15.133 15.133 0 0 0-8.8-7.453 18.592 18.592 0 0 0-2.6-.61c4.294 2.327 9.991 8.158 12.675 11.385z" class="cls-1" data-name="Path 443" transform="translate(-115.983 -171.45)"/>
                <path id="Path_444" d="M120.17 206.748a11.244 11.244 0 0 1-2.971-1.227c-2.324-6-5.24-10.375-8.066-13.026a18.34 18.34 0 0 1 .083-2.313c3.1 3.483 7.68 7.916 10.953 16.566z" class="cls-1" data-name="Path 444" transform="translate(-109.128 -176.674)"/>
                <path id="Path_445" d="M113.347 204.137a17.566 17.566 0 0 0 2.189 1.9c-1.135-2.744-4.569-7.49-6.15-10.121a13.787 13.787 0 0 0 .921 3.463 16.056 16.056 0 0 0 3.04 4.756z" class="cls-1" data-name="Path 445" transform="translate(-109.201 -178.285)"/>
            </g>
            <g id="Group_139" data-name="Group 139" transform="translate(41.099 6.368)">
                <path id="Path_446" d="M181.057 184.351l-3.723 1.163a3.047 3.047 0 0 0-3.182-2.069q-2.595 0-2.595 1.571a1.371 1.371 0 0 0 .485 1.06 5.083 5.083 0 0 0 2.194.755 22.909 22.909 0 0 1 4.182 1.086 5.266 5.266 0 0 1 2.235 1.769 4.45 4.45 0 0 1 .91 2.726 5.292 5.292 0 0 1-1.949 4.086q-1.948 1.722-5.778 1.723a9.277 9.277 0 0 1-4.889-1.22 5.8 5.8 0 0 1-2.66-3.62l4.051-.856q.683 2.441 3.8 2.44a3.772 3.772 0 0 0 2.24-.543 1.581 1.581 0 0 0 .738-1.3 1.33 1.33 0 0 0-.67-1.188 8.464 8.464 0 0 0-2.583-.792 12.248 12.248 0 0 1-5.085-1.885 4.179 4.179 0 0 1-1.517-3.493 5.026 5.026 0 0 1 1.812-3.92 7.174 7.174 0 0 1 4.916-1.6q5.496.007 7.068 4.107z" class="cls-2" data-name="Path 446" transform="translate(-166.289 -180.251)"/>
                <path id="Path_447" d="M197.828 198.221a6.982 6.982 0 0 1-5.84-2.644 10.081 10.081 0 0 1-2.064-6.4 9.731 9.731 0 0 1 2.092-6.373 7.271 7.271 0 0 1 5.963-2.555 6.839 6.839 0 0 1 5.9 2.727 10.314 10.314 0 0 1 1.99 6.239 10.027 10.027 0 0 1-2.051 6.4 7.166 7.166 0 0 1-5.99 2.606zm.123-14.636q-3.443 0-3.442 5.645t3.442 5.658q3.333 0 3.333-5.645t-3.333-5.658z" class="cls-2" data-name="Path 447" transform="translate(-172.93 -180.251)"/>
                <path id="Path_448" d="M228.239 184.073h-8.747v3.909h6.908v3.256h-6.913v6.821h-4.544v-17.434h13.291z" class="cls-2" data-name="Path 448" transform="translate(-179.962 -180.356)"/>
                <path id="Path_449" d="M249.649 180.625v3.448h-4.626v13.985h-4.435v-13.985h-4.653v-3.448z" class="cls-2" data-name="Path 449" transform="translate(-185.859 -180.356)"/>
                <path id="Path_450" d="M271.492 180.625v3.448h-4.626v13.985h-4.434v-13.985h-4.655v-3.448z" class="cls-2" data-name="Path 450" transform="translate(-191.996 -180.356)"/>
                <path id="Path_451" d="M292.453 183.945h-8.9v3.576h6.994v3.279h-6.994v3.806h8.9v3.449h-13.345v-17.43h13.345z" class="cls-2" data-name="Path 451" transform="translate(-197.99 -180.356)"/>
                <path id="Path_452" d="M314.915 187.008l-4.585.268q-.1-3.691-3.087-3.691-3.429 0-3.429 5.683 0 3.283.933 4.451a3.147 3.147 0 0 0 2.606 1.169q2.715 0 3.319-3.3l4.243.242a6.871 6.871 0 0 1-2.5 4.758 8.819 8.819 0 0 1-11.141-.76 9.072 9.072 0 0 1-2.32-6.6 9.344 9.344 0 0 1 2.244-6.462 7.8 7.8 0 0 1 6.132-2.517q6.737.002 7.585 6.759z" class="cls-2" data-name="Path 452" transform="translate(-203.567 -180.251)"/>
                <path id="Path_453" d="M330.971 198.221a6.981 6.981 0 0 1-5.84-2.644 10.077 10.077 0 0 1-2.064-6.4 9.723 9.723 0 0 1 2.092-6.373 7.268 7.268 0 0 1 5.963-2.555 6.838 6.838 0 0 1 5.9 2.727 10.31 10.31 0 0 1 1.99 6.239 10.023 10.023 0 0 1-2.051 6.4 7.163 7.163 0 0 1-5.99 2.606zm.123-14.636q-3.443 0-3.442 5.645t3.442 5.658q3.334 0 3.333-5.645t-3.333-5.658z" class="cls-2" data-name="Path 453" transform="translate(-210.342 -180.251)"/>
            </g>
        </g>
    </g>
</svg>
