<svg width="711" height="1004" viewBox="0 0 711 1004" fill="none" xmlns="http://www.w3.org/2000/svg">
<g clip-path="url(#clip0_42_943)">
<line x1="616.313" y1="10.499" x2="38.2505" y2="10.499" stroke="black" stroke-width="3"/>
<line x1="39.7505" y1="8.99902" x2="39.7504" y2="991.913" stroke="black" stroke-width="3"/>
<line x1="38.2505" y1="992.5" x2="193.722" y2="992.5" stroke="black" stroke-width="3"/>
<line x1="193.722" y1="992.5" x2="304.326" y2="992.5" stroke="black" stroke-width="3"/>
<line x1="302.826" y1="991.913" x2="302.826" y2="939.741" stroke="black" stroke-width="3"/>
<line x1="671.615" y1="868.201" x2="405.226" y2="868.201" stroke="black" stroke-width="3"/>
<line x1="670.115" y1="866.701" x2="670.115" y2="515.064" stroke="black" stroke-width="3"/>
<line x1="671.615" y1="516.564" x2="614.362" y2="516.564" stroke="black" stroke-width="3"/>
<path d="M614.226 10.042L619.013 20.9874L628.589 42.8783L632.844 55.3874L638.164 69.9813L644.547 89.7873L650.93 111.678L655.186 130.442L657.846 142.951L659.973 155.46L663.165 176.308L664.761 188.296L665.825 200.805L666.357 208.623L666.889 213.836L667.421 221.133L667.953 228.429L668.484 237.811L668.484 252.405L668.484 263.872L667.421 286.284L666.357 304.526L663.697 324.854L661.569 339.969L659.441 355.084L656.25 373.326L651.994 393.653L645.611 420.756L638.695 446.817L633.376 465.059L623.269 495.811L615.822 515.617" stroke="black" stroke-width="3" stroke-linejoin="round"/>
<path d="M406.582 867.744L401.792 874.677L396.469 881.077L390.615 888.01L384.76 894.41L378.373 900.809L367.728 909.876L358.147 916.809L349.099 922.675L340.582 927.475L332.599 931.208L328.341 932.808L324.615 934.408L320.889 935.475L316.631 936.541L310.776 938.141L306.518 939.208L306.466 939.218C304.731 939.566 302.965 939.741 301.195 939.741V939.741" stroke="black" stroke-width="3" stroke-linejoin="round"/>
<path d="M38 674L23 665.34L23 682.66L38 674ZM6 675.5L24.5 675.5L24.5 672.5L6 672.5L6 675.5Z" fill="black"/>
<path d="M38 298L23 289.34L23 306.66L38 298ZM6 299.5L24.5 299.5L24.5 296.5L6 296.5L6 299.5Z" fill="black"/>
</g>
<rect x="0.500061" y="1003.5" width="1003" height="710" transform="rotate(-90 0.500061 1003.5)" stroke="black"/>
<defs>
<clipPath id="clip0_42_943">
<rect x="6.10352e-05" y="1004" width="1004" height="711" transform="rotate(-90 6.10352e-05 1004)" fill="white"/>
</clipPath>
</defs>
</svg>
