<svg width="711" height="1004" viewBox="0 0 711 1004" fill="none" xmlns="http://www.w3.org/2000/svg">
<g clip-path="url(#clip0_42_895)">
<line y1="-1.5" x2="570.45" y2="-1.5" transform="matrix(-1 0 0 1 613.727 988)" stroke="black" stroke-width="3"/>
<line x1="41.7766" y1="988" x2="41.7767" y2="16.9999" stroke="black" stroke-width="3"/>
<line x1="43.2766" y1="18.5884" x2="196.701" y2="18.5884" stroke="black" stroke-width="3"/>
<line y1="-1.5" x2="109.147" y2="-1.5" transform="matrix(1 4.37114e-08 4.37114e-08 -1 196.701 16.9995)" stroke="black" stroke-width="3"/>
<line y1="-1.5" x2="51.4846" y2="-1.5" transform="matrix(-4.37114e-08 1 1 4.37114e-08 305.848 19.0586)" stroke="black" stroke-width="3"/>
<line y1="-1.5" x2="262.572" y2="-1.5" transform="matrix(-1 -8.74228e-08 -8.74228e-08 1 668.3 142.622)" stroke="black" stroke-width="3"/>
<line y1="-1.5" x2="347.006" y2="-1.5" transform="matrix(4.37114e-08 1 1 -4.37114e-08 668.3 142.622)" stroke="black" stroke-width="3"/>
<line y1="-1.5" x2="56.6331" y2="-1.5" transform="matrix(-1 0 0 1 668.3 489.628)" stroke="black" stroke-width="3"/>
<path d="M611.667 986.97L616.391 976.18L625.84 954.601L630.04 942.27L635.289 927.884L641.589 908.361L647.888 886.782L652.087 868.285L654.712 855.955L656.812 843.624L659.962 823.072L661.536 811.255L662.586 798.925L663.111 791.218L663.636 786.08L664.161 778.887L664.686 771.694L665.211 762.446L665.211 748.06L665.211 736.757L664.161 714.664L663.111 696.681L660.486 676.644L658.387 661.744L656.287 646.844L653.137 628.862L648.938 608.824L642.638 582.107L635.814 556.418L630.565 538.436L620.591 508.122L613.242 488.599" stroke="black" stroke-width="3" stroke-linejoin="round"/>
<path d="M406.758 141.592L402.031 134.751L396.779 128.435L391.001 121.593L385.223 115.278L378.92 108.962L368.415 100.016L358.961 93.1738L350.032 87.3847L341.628 82.6481L333.749 78.9641L329.547 77.3852L325.87 75.8064L322.193 74.7538L317.992 73.7012L312.214 72.1223L308.012 71.0698L307.961 71.0595C306.248 70.7163 304.506 70.5435 302.759 70.5435V70.5435" stroke="black" stroke-width="3" stroke-linejoin="round"/>
<path d="M43 674L28 665.34L28 682.66L43 674ZM11 675.5L29.5 675.5L29.5 672.5L11 672.5L11 675.5Z" fill="black"/>
<path d="M43 373L28 364.34L28 381.66L43 373ZM11 374.5L29.5 374.5L29.5 371.5L11 371.5L11 374.5Z" fill="black"/>
</g>
<rect x="0.5" y="1003.5" width="1003" height="710" transform="rotate(-90 0.5 1003.5)" stroke="black"/>
<defs>
<clipPath id="clip0_42_895">
<rect y="1004" width="1004" height="711" transform="rotate(-90 0 1004)" fill="white"/>
</clipPath>
</defs>
</svg>
