<svg width="711" height="1004" viewBox="0 0 711 1004" fill="none" xmlns="http://www.w3.org/2000/svg">
<g clip-path="url(#clip0_42_860)">
<line x1="19" y1="804.5" x2="690" y2="804.5" stroke="black" stroke-width="3"/>
<line x1="20.5" y1="806" x2="20.5" y2="200" stroke="black" stroke-width="3"/>
<line x1="464.5" y1="369" x2="464.5" y2="184" stroke="black" stroke-width="3"/>
<line x1="596" y1="477.5" x2="555" y2="477.5" stroke="black" stroke-width="3"/>
<line x1="594.5" y1="537" x2="594.5" y2="479" stroke="black" stroke-width="3"/>
<line x1="212.5" y1="184" x2="212.5" y2="241" stroke="black" stroke-width="3"/>
<line x1="211" y1="182.5" x2="466.3" y2="182.5" stroke="black" stroke-width="3"/>
<path d="M594.5 536L598.115 540.921L606.345 551.124L610.535 557.138L615.572 564.101L622.056 573.678L628.938 584.365L634.323 593.71L637.838 599.967L641.129 606.304L646.463 616.92L649.43 623.061L652.271 629.559L653.99 633.641L655.212 636.336L656.832 640.14L658.452 643.944L660.47 648.859L663.261 656.629L665.453 662.734L669.289 674.828L672.328 684.702L675.091 695.929L677.082 704.299L679.074 712.67L681.213 722.866L683.303 734.335L685.789 749.733L687.85 764.658L689.092 775.177L690 791L690 806" stroke="black" stroke-width="3" stroke-linejoin="round"/>
<path d="M20 201.809L34.6969 199.619L48.9168 198.584L64.3862 197.56L78.9925 197.107L93.985 197.238L116.383 199.172L134.556 202.228L150.617 205.845L164.565 210.023L176.401 214.762L182.08 217.709L182.521 217.906C185.75 219.349 188.855 221.056 191.804 223.01V223.01L196.62 226.529L203.458 231.224L208.274 234.743L208.58 235C210.221 236.375 211.556 238.078 212.5 240V240" stroke="black" stroke-width="3" stroke-linejoin="round"/>
<path d="M464 367.5L468.792 371.584L473.878 376.832L479.454 382.617L484.937 388.463L490.816 394.909L500.336 405.837L508.69 415.814L516.461 425.315L523.648 434.341L530.253 442.892L533.707 447.498L536.764 451.505L539.729 455.573L543.09 460.24L547.734 466.642L551 471L553.5 474L556.5 478" stroke="black" stroke-width="3" stroke-linejoin="round"/>
<path d="M389 806L380.34 821L397.66 821L389 806ZM390.5 838L390.5 819.5L387.5 819.5L387.5 838L390.5 838Z" fill="black"/>
</g>
<rect x="0.5" y="1003.5" width="1003" height="710" transform="rotate(-90 0.5 1003.5)" stroke="black"/>
<defs>
<clipPath id="clip0_42_860">
<rect y="1004" width="1004" height="711" transform="rotate(-90 0 1004)" fill="white"/>
</clipPath>
</defs>
</svg>
