<svg width="711" height="1004" viewBox="0 0 711 1004" fill="none" xmlns="http://www.w3.org/2000/svg">
<g clip-path="url(#clip0_41_529)">
<line x1="300.3" y1="23.5" x2="117.206" y2="23.5" stroke="black" stroke-width="3"/>
<line x1="595.897" y1="93.5" x2="400.67" y2="93.5" stroke="black" stroke-width="3"/>
<line x1="116.5" y1="22" x2="116.5" y2="981" stroke="black" stroke-width="3"/>
<line x1="297.697" y1="981" x2="297.697" y2="944" stroke="black" stroke-width="3"/>
<line x1="597" y1="910.5" x2="400.671" y2="910.5" stroke="black" stroke-width="3"/>
<line x1="595.5" y1="910" x2="595.5" y2="664" stroke="black" stroke-width="3"/>
<line x1="595.5" y1="338" x2="595.5" y2="92" stroke="black" stroke-width="3"/>
<line x1="597" y1="665.5" x2="563.911" y2="665.5" stroke="black" stroke-width="3"/>
<line x1="597" y1="337.5" x2="563.911" y2="337.5" stroke="black" stroke-width="3"/>
<line x1="298.491" y1="25" x2="298.491" y2="60" stroke="black" stroke-width="3"/>
<path d="M565.565 338.5L568.323 347L571.794 358.303L574.129 366.419L577.049 375.887L580.553 388.736L584.056 402.938L586.392 415.111L587.852 423.227L589.019 431.342L590.771 444.868L591.647 452.645L592.231 460.761L592.523 465.833L592.815 469.214L593.107 473.948L593.399 478.682L593.691 484.769L593.691 494.237L593.691 501.676L593.107 516.216L592.523 528.052L591.063 541.239L589.895 551.045L588.728 560.852L586.976 572.687L584.64 585.874L581.136 603.458L577.341 620.365L574.421 632.2L568.874 652.151L564.786 665" stroke="black" stroke-width="3" stroke-linejoin="round"/>
<path d="M401.773 910L396.96 913.467L391.613 916.667L385.73 920.133L379.848 923.333L373.43 926.533L362.735 931.067L353.109 934.533L344.018 937.467L335.461 939.867L327.44 941.733L323.161 942.533L319.418 943.333L315.675 943.867L311.396 944.4L305.514 945.2L301.236 945.733L298.562 946L295.888 946" stroke="black" stroke-width="3" stroke-linejoin="round"/>
<path d="M298.645 58.5L301.954 58.5L308.021 58.5L314.638 58.5L317.455 58.5C320.72 58.5 323.981 58.7186 327.21 59.1541V59.1541C330.984 59.663 334.703 60.4663 338.324 61.5551L343.928 63.2398L353.371 66.6815L362.011 70.1836L369.85 73.7461L376.886 77.3689L380.48 79.4455L383.705 81.1887L386.714 83.1287L390.09 85.4022L394.787 88.479L398.163 90.7525L400.219 92.2226L402.058 93.8897" stroke="black" stroke-width="3" stroke-linejoin="round"/>
<line x1="117.206" y1="979.5" x2="299.197" y2="979.5" stroke="black" stroke-width="3"/>
<path d="M115 919L100 910.34V927.66L115 919ZM83 920.5H101.5V917.5H83V920.5Z" fill="black"/>
<path d="M115 277L100 268.34V285.66L115 277ZM83 278.5H101.5V275.5H83V278.5Z" fill="black"/>
<rect x="145.5" y="663.5" width="79" height="79" stroke="black"/>
<rect x="417.5" y="711.5" width="79" height="79" stroke="black"/>
<rect x="371.5" y="582.5" width="79" height="79" stroke="black"/>
<rect x="145.5" y="580.5" width="79" height="79" stroke="black"/>
<rect x="145.5" y="453.5" width="79" height="79" stroke="black"/>
<rect x="145.5" y="370.5" width="79" height="79" stroke="black"/>
<rect x="377.5" y="431.5" width="79" height="79" stroke="black"/>
<rect x="145.5" y="287.5" width="79" height="79" stroke="black"/>
<rect x="377.5" y="348.5" width="79" height="79" stroke="black"/>
<rect x="145.5" y="155.5" width="79" height="79" stroke="black"/>
<rect x="145.5" y="72.5" width="79" height="79" stroke="black"/>
<rect x="418.5" y="126.5" width="79" height="79" stroke="black"/>
<rect x="321.5" y="113.5" width="79" height="79" stroke="black"/>
<rect x="418.5" y="210.5" width="79" height="79" stroke="black"/>
<rect x="321.5" y="197.5" width="79" height="79" stroke="black"/>
<rect x="333.5" y="711.5" width="79" height="79" stroke="black"/>
<rect x="228.5" y="663.5" width="79" height="79" stroke="black"/>
<rect x="500.5" y="711.5" width="79" height="79" stroke="black"/>
<rect x="454.5" y="582.5" width="79" height="79" stroke="black"/>
<rect x="228.5" y="580.5" width="79" height="79" stroke="black"/>
<rect x="228.5" y="453.5" width="79" height="79" stroke="black"/>
<rect x="228.5" y="370.5" width="79" height="79" stroke="black"/>
<rect x="460.5" y="431.5" width="79" height="79" stroke="black"/>
<rect x="228.5" y="287.5" width="79" height="79" stroke="black"/>
<rect x="460.5" y="348.5" width="79" height="79" stroke="black"/>
<rect x="228.5" y="155.5" width="79" height="79" stroke="black"/>
<rect x="228.5" y="72.5" width="79" height="79" stroke="black"/>
<rect x="501.5" y="126.5" width="79" height="79" stroke="black"/>
<rect x="501.5" y="210.5" width="79" height="79" stroke="black"/>
<rect x="228.5" y="746.5" width="79" height="79" stroke="black"/>
<rect x="228.5" y="829.5" width="79" height="79" stroke="black"/>
<rect x="500.5" y="794.5" width="79" height="79" stroke="black"/>
<rect x="145.5" y="746.5" width="79" height="79" stroke="black"/>
<rect x="145.5" y="829.5" width="79" height="79" stroke="black"/>
<rect x="417.5" y="794.5" width="79" height="79" stroke="black"/>
<rect x="333.5" y="794.5" width="79" height="79" stroke="black"/>
</g>
<rect x="0.5" y="1003.5" width="1003" height="710" transform="rotate(-90 0.5 1003.5)" stroke="black"/>
<defs>
<clipPath id="clip0_41_529">
<rect y="1004" width="1004" height="711" transform="rotate(-90 0 1004)" fill="white"/>
</clipPath>
</defs>
</svg>
