<svg width="711" height="1004" viewBox="0 0 711 1004" fill="none" xmlns="http://www.w3.org/2000/svg">
<g clip-path="url(#clip0_42_801)">
<rect x="133.47" y="820.846" width="78.8361" height="78.8361" stroke="black"/>
<rect x="442.835" y="755.979" width="78.8361" height="78.8361" stroke="black"/>
<rect x="393.935" y="187.147" width="78.8361" height="78.8361" stroke="black"/>
<rect x="268.193" y="820.846" width="78.8361" height="78.8361" stroke="black"/>
<rect x="577.558" y="755.979" width="78.8361" height="78.8361" stroke="black"/>
<rect x="528.658" y="187.147" width="78.8361" height="78.8361" stroke="black"/>
<rect x="528.658" y="448.61" width="78.8361" height="78.8361" stroke="black"/>
<rect x="259.212" y="448.61" width="78.8361" height="78.8361" stroke="black"/>
<rect x="268.193" y="690.115" width="78.8361" height="78.8361" stroke="black"/>
<rect x="577.558" y="625.248" width="78.8361" height="78.8361" stroke="black"/>
<rect x="528.658" y="56.4159" width="78.8361" height="78.8361" stroke="black"/>
<rect x="528.658" y="317.879" width="78.8361" height="78.8361" stroke="black"/>
<rect x="259.212" y="317.879" width="78.8361" height="78.8361" stroke="black"/>
<rect x="259.212" y="56.4159" width="78.8361" height="78.8361" stroke="black"/>
<rect x="133.47" y="690.115" width="78.8361" height="78.8361" stroke="black"/>
<rect x="442.835" y="625.248" width="78.8361" height="78.8361" stroke="black"/>
<rect x="393.935" y="56.4159" width="78.8361" height="78.8361" stroke="black"/>
<rect x="124.488" y="56.4158" width="78.8361" height="78.8361" stroke="black"/>
<line x1="630.728" y1="16.4999" x2="59.1216" y2="16.4998" stroke="black" stroke-width="3"/>
<line x1="60.6216" y1="14.9999" x2="60.6216" y2="936.379" stroke="black" stroke-width="3"/>
<line x1="60.6421" y1="934.961" x2="213.345" y2="987.582" stroke="black" stroke-width="3"/>
<line x1="212.857" y1="987.5" x2="322.225" y2="987.5" stroke="black" stroke-width="3"/>
<line x1="320.725" y1="986.936" x2="320.725" y2="935.347" stroke="black" stroke-width="3"/>
<line x1="685.412" y1="864.623" x2="421.998" y2="864.623" stroke="black" stroke-width="3"/>
<line x1="683.912" y1="863.123" x2="683.912" y2="515.413" stroke="black" stroke-width="3"/>
<line x1="685.412" y1="516.913" x2="628.798" y2="516.913" stroke="black" stroke-width="3"/>
<path d="M628.664 16.0317L633.398 26.8549L642.866 48.5013L647.074 60.8707L652.334 75.3016L658.646 94.8864L664.958 116.533L669.166 135.087L671.796 147.456L673.9 159.826L677.056 180.441L678.634 192.295L679.686 204.664L680.212 212.395L680.738 217.549L681.264 224.765L681.79 231.98L682.316 241.257L682.316 255.688L682.316 267.027L681.264 289.188L680.212 307.227L677.582 327.327L675.478 342.274L673.374 357.22L670.218 375.258L666.01 395.359L659.698 422.159L652.86 447.928L647.6 465.967L637.606 496.375L630.242 515.96" stroke="black" stroke-width="3" stroke-linejoin="round"/>
<path d="M423.34 864.155L418.603 871.01L413.34 877.338L407.55 884.194L401.761 890.522L395.445 896.851L384.919 905.816L375.445 912.671L366.498 918.472L358.077 923.218L350.182 926.91L345.972 928.492L342.288 930.074L338.604 931.129L334.393 932.183L328.604 933.765L324.393 934.82L324.342 934.83C322.626 935.174 320.88 935.347 319.13 935.347V935.347" stroke="black" stroke-width="3" stroke-linejoin="round"/>
<path d="M59.1217 661.672L44.1217 653.012V670.332L59.1217 661.672ZM27.1873 663.172H45.6217V660.172H27.1873V663.172Z" fill="black"/>
</g>
<rect x="0.500061" y="1003.5" width="1003" height="710" transform="rotate(-90 0.500061 1003.5)" stroke="black"/>
<defs>
<clipPath id="clip0_42_801">
<rect x="6.10352e-05" y="1004" width="1004" height="711" transform="rotate(-90 6.10352e-05 1004)" fill="white"/>
</clipPath>
</defs>
</svg>
